<?xml version="1.0" encoding="iso-8859-1"?>
<!-- Generator: Adobe Illustrator 19.0.0, SVG Export Plug-In . SVG Version: 6.00 Build 0)  -->
<svg version="1.1" id="Capa_1" xmlns="http://www.w3.org/2000/svg" xmlns:xlink="http://www.w3.org/1999/xlink" x="0px" y="0px"
	 viewBox="0 0 511.994 511.994" style="enable-background:new 0 0 511.994 511.994;" xml:space="preserve">
<path style="fill:#444A64;" d="M141.032,259.764h61.231v-34.18h107.472v34.18H461.02c0,0,23.594-38.324,2.424-84.359
	c-21.581-46.926-95.006-58.494-202.483-58.494S80.058,128.479,58.477,175.405c-21.171,46.035,2.424,84.359,2.424,84.359h49.489"/>
<path style="fill:#394156;" d="M463.443,175.405c-21.581-46.926-95.006-58.494-202.483-58.494c-3.715,0-7.384,0.015-11.017,0.044
	c101.47,0.799,170.632,13.145,191.467,58.45c21.17,46.035-2.424,84.359-2.424,84.359h22.033
	C461.02,259.764,484.614,221.44,463.443,175.405z"/>
<path style="fill:#E5E5E5;" d="M471.398,259.764H309.735v13.894H202.263v-13.894H40.6c-11.611,0-21.022,9.412-21.022,21.022v1.651
	c0,11.61,9.412,21.022,21.022,21.022h430.8c11.61,0,21.022-9.412,21.022-21.022v-1.651
	C492.42,269.176,483.009,259.764,471.398,259.764z"/>
<path style="fill:#C4C4C4;" d="M471.398,259.764h-23.035c11.61,0,21.022,9.412,21.022,21.022v1.651
	c0,11.61-9.412,21.022-21.022,21.022h23.035c11.61,0,21.022-9.412,21.022-21.022v-1.651
	C492.42,269.176,483.009,259.764,471.398,259.764z"/>
<rect x="230.299" y="424.414" style="fill:#ACABB1;" width="50.326" height="80.07"/>
<g>
	<path style="fill:#383A42;" d="M384.646,353.24h40.763c10.575,0,19.148-8.573,19.148-19.148v-30.633h-79.059v30.633
		C365.498,344.668,374.071,353.24,384.646,353.24z"/>
	<path style="fill:#383A42;" d="M132.141,353.24H91.379c-10.575,0-19.148-8.573-19.148-19.148v-30.633h79.059v30.633
		C151.289,344.668,142.716,353.24,132.141,353.24z"/>
</g>
<g>
	<circle style="fill:#E5E5E5;" cx="442.471" cy="118.77" r="26.05"/>
	<circle style="fill:#E5E5E5;" cx="78.859" cy="118.77" r="26.05"/>
</g>
<path style="fill:#6CC4FF;" d="M260.959,116.913c-68.703,0-123.489,4.728-159.716,20.396C124.266,3.094,260.693,7.535,260.693,7.535
	s136.235-4.426,159.391,129.524C383.854,121.592,329.292,116.913,260.959,116.913z"/>
<path style="fill:#43B2EF;" d="M394.365,128.56c9.379,2.381,17.971,5.191,25.719,8.498C396.927,3.109,260.693,7.535,260.693,7.535
	s-4.518-0.143-12.024,0.422C281.549,10.431,372.104,26.581,394.365,128.56z"/>
<g>
	<path style="fill:#ED1856;" d="M129.775,221.047h-29.556c-9.299,0-16.909-7.609-16.909-16.909l0,0
		c0-9.299,7.609-16.909,16.909-16.909h29.556c9.299,0,16.909,7.609,16.909,16.909l0,0
		C146.684,213.438,139.075,221.047,129.775,221.047z"/>
	<path style="fill:#ED1856;" d="M425.566,221.047H396.01c-9.299,0-16.909-7.609-16.909-16.909l0,0
		c0-9.299,7.609-16.909,16.909-16.909h29.556c9.299,0,16.909,7.609,16.909,16.909l0,0
		C442.475,213.438,434.866,221.047,425.566,221.047z"/>
</g>
<rect x="202.266" y="225.582" style="fill:#FFD039;" width="107.473" height="48.073"/>
<rect x="288.707" y="225.582" style="fill:#FFAE47;" width="21.032" height="48.073"/>
<g>
	<path style="fill:#D61857;" d="M425.566,187.23h-25.038c9.299,0,16.909,7.609,16.909,16.909l0,0
		c0,9.299-7.609,16.909-16.909,16.909h25.038c9.299,0,16.909-7.609,16.909-16.909l0,0
		C442.475,194.839,434.866,187.23,425.566,187.23z"/>
	<path style="fill:#D61857;" d="M129.775,187.23h-25.038c9.299,0,16.909,7.609,16.909,16.909l0,0
		c0,9.299-7.609,16.909-16.909,16.909h25.038c9.299,0,16.909-7.609,16.909-16.909l0,0
		C146.684,194.839,139.075,187.23,129.775,187.23z"/>
</g>
<rect x="259.593" y="424.414" style="fill:#909093;" width="21.032" height="80.07"/>
<rect x="333.259" y="389.105" transform="matrix(-0.7071 0.7071 -0.7071 -0.7071 915.311 479.1437)" style="fill:#ACABB1;" width="50.326" height="80.069"/>
<rect x="328.737" y="408.275" transform="matrix(0.7071 0.7071 -0.7071 0.7071 404.1404 -138.0998)" style="fill:#909093;" width="80.069" height="21.032"/>
<rect x="129.49" y="389.106" transform="matrix(-0.7071 -0.7071 0.7071 -0.7071 -39.4397 841.9442)" style="fill:#ACABB1;" width="50.326" height="80.069"/>
<rect x="124.959" y="428.98" transform="matrix(-0.7071 0.7071 -0.7071 -0.7071 592.4326 633.5988)" style="fill:#909093;" width="80.069" height="21.032"/>
<path d="M472.839,252.289c6.092-15.672,13.177-45.775-2.572-80.022c-3.8-8.262-9.086-15.622-15.873-22.138
	c12.636-4.818,21.639-17.056,21.639-31.363c0-18.504-15.054-33.559-33.559-33.559c-10.387,0-19.686,4.745-25.846,12.179
	c-18.995-46.453-53.533-70.196-81.996-82.24C297.826-0.427,264.161-0.058,260.695,0.02c-4.476-0.116-55.734-0.663-101.283,29.795
	c-3.448,2.305-4.375,6.971-2.068,10.419c2.307,3.448,6.972,4.375,10.419,2.068c42.525-28.436,92.201-27.282,92.686-27.261
	c0.162,0.005,0.326,0.005,0.488,0c0.329-0.009,32.811-0.882,67.841,13.941c41.528,17.574,68.471,48.773,80.286,92.857
	c0.101,1.106,0.256,2.195,0.463,3.268c-3.1-1.011-6.314-1.972-9.658-2.879c-0.091-0.025-0.184-0.048-0.275-0.073
	c-1.06-0.286-2.131-0.569-3.217-0.844c-0.038-0.01-0.075-0.02-0.114-0.03c-0.331-0.084-0.672-0.165-1.006-0.248
	c-1.359-0.339-2.738-0.67-4.137-0.994c-0.342-0.079-0.678-0.16-1.023-0.238c-0.595-0.135-1.202-0.265-1.804-0.398
	c-0.549-0.12-1.097-0.241-1.651-0.36c-0.56-0.119-1.128-0.235-1.694-0.353c-0.625-0.129-1.251-0.257-1.883-0.384
	c-0.524-0.104-1.053-0.207-1.582-0.31c-0.712-0.138-1.43-0.274-2.153-0.41c-0.47-0.087-0.938-0.175-1.412-0.261
	c-0.853-0.155-1.715-0.306-2.581-0.457c-0.359-0.062-0.715-0.125-1.076-0.187c-1.21-0.205-2.431-0.408-3.668-0.604
	c-0.026-0.004-0.052-0.009-0.079-0.013c-4.05-0.644-8.251-1.238-12.598-1.786c-0.085-0.011-0.172-0.021-0.257-0.032
	c-1.369-0.171-2.753-0.339-4.152-0.501c-0.081-0.009-0.162-0.019-0.243-0.028c-8.918-1.03-18.458-1.87-28.686-2.526
	c-0.026-0.002-0.053-0.003-0.08-0.005c-1.652-0.106-3.323-0.206-5.012-0.303c-0.082-0.005-0.163-0.009-0.245-0.014
	c-1.675-0.095-3.367-0.185-5.078-0.271c-0.056-0.003-0.112-0.006-0.169-0.009c-5.331-0.265-10.834-0.487-16.524-0.663
	c-0.05-0.002-0.1-0.003-0.15-0.004c-1.736-0.053-3.49-0.102-5.261-0.147c-0.428-0.011-0.86-0.021-1.291-0.031
	c-1.408-0.034-2.826-0.066-4.256-0.095c-0.574-0.012-1.153-0.022-1.731-0.033c-1.305-0.024-2.62-0.047-3.943-0.067
	c-0.65-0.01-1.3-0.02-1.955-0.029c-1.284-0.017-2.579-0.032-3.88-0.046c-0.68-0.007-1.357-0.015-2.041-0.021
	c-1.373-0.012-2.761-0.021-4.153-0.029c-0.602-0.004-1.197-0.008-1.803-0.011c-1.997-0.009-4.01-0.014-6.047-0.014
	c-2.046,0-4.067,0.005-6.073,0.014c-0.589,0.003-1.169,0.007-1.754,0.01c-1.423,0.008-2.842,0.017-4.245,0.03
	c-0.652,0.006-1.296,0.013-1.944,0.02c-1.352,0.014-2.698,0.03-4.032,0.048c-0.608,0.008-1.213,0.017-1.817,0.027
	c-1.403,0.021-2.796,0.045-4.178,0.071c-0.501,0.009-1.003,0.019-1.5,0.029c-1.593,0.032-3.173,0.068-4.739,0.107
	c-0.266,0.007-0.536,0.012-0.802,0.019c-31.274,0.797-57.159,2.879-78.861,6.353c-0.146,0.023-0.289,0.047-0.436,0.071
	c-1.115,0.18-2.22,0.364-3.314,0.551c-0.346,0.059-0.688,0.119-1.032,0.179c-0.879,0.153-1.752,0.309-2.616,0.468
	c-0.446,0.081-0.89,0.163-1.332,0.246c-0.741,0.139-1.474,0.28-2.205,0.424c-0.513,0.1-1.027,0.199-1.533,0.3
	c-0.616,0.123-1.223,0.25-1.831,0.377c-0.588,0.122-1.181,0.242-1.762,0.367c-0.161,0.035-0.318,0.071-0.479,0.105
	c-1.809,0.391-3.582,0.794-5.326,1.209c-0.175,0.042-0.355,0.082-0.53,0.124c-0.813,0.195-1.615,0.396-2.415,0.596
	c-0.181,0.045-0.367,0.089-0.547,0.135c-0.065,0.016-0.127,0.034-0.191,0.05c-1.058,0.269-2.102,0.544-3.136,0.823
	c-0.112,0.03-0.225,0.06-0.338,0.09c-3.545,0.963-6.953,1.982-10.222,3.061c0.205-1.038,0.368-2.092,0.475-3.162
	c6.512-24.324,17.716-44.921,33.45-61.368c2.867-2.998,2.762-7.753-0.235-10.62s-7.752-2.762-10.62,0.235
	c-12.771,13.35-22.825,29.089-30.123,47.01c-6.16-7.443-15.464-12.195-25.859-12.195c-18.505,0-33.559,15.055-33.559,33.559
	c0,14.459,9.192,26.812,22.04,31.521c-6.703,6.476-11.921,13.788-15.688,21.979c-15.737,34.221-8.674,64.304-2.586,79.985h-8.466
	c-15.734,0-28.533,12.8-28.533,28.533v1.651c0,15.733,12.799,28.533,28.533,28.533h24.12v23.121c0,14.7,11.959,26.659,26.659,26.659
	h40.762c14.7,0,26.659-11.959,26.659-26.659v-23.121h67.172c-6.2,9.979-12.774,20.012-18.63,27.809
	c-11.211,14.928-21.317,36.314-26.836,48.979l-10.029-10.029c-2.933-2.933-7.689-2.933-10.623,0l-56.618,56.618
	c-1.408,1.408-2.199,3.319-2.199,5.311s0.791,3.903,2.2,5.311l35.584,35.584c1.467,1.466,3.39,2.2,5.312,2.2s3.845-0.733,5.312-2.2
	l56.617-56.618c2.933-2.933,2.933-7.69,0-10.623l-14.099-14.099c4.26-10.199,15.37-35.406,27.393-51.413
	c7.785-10.365,16.591-24.176,24.256-36.831h5.619l0.582,105.937h-19.513c-4.149,0-7.511,3.363-7.511,7.511v80.069
	c0,4.148,3.362,7.511,7.511,7.511h50.324c4.149,0,7.511-3.363,7.511-7.511v-80.069c0-4.148-3.362-7.511-7.511-7.511h-15.789
	l-0.582-105.937h5.209c7.665,12.655,16.471,26.466,24.256,36.831c12.005,15.985,23.126,41.209,27.392,51.414l-14.099,14.099
	c-2.933,2.933-2.933,7.69,0,10.623l56.617,56.618c1.467,1.467,3.389,2.2,5.312,2.2c1.922,0,3.845-0.733,5.312-2.2l35.584-35.584
	c1.409-1.408,2.2-3.319,2.2-5.311s-0.791-3.903-2.199-5.311l-56.618-56.618c-2.934-2.933-7.69-2.933-10.623,0l-10.029,10.029
	c-5.518-12.665-15.624-34.052-26.836-48.979c-5.856-7.797-12.43-17.83-18.63-27.809h70.888v23.121
	c0,14.7,11.958,26.659,26.658,26.659h40.763c14.7,0,26.659-11.959,26.659-26.659v-23.121h19.331c15.734,0,28.533-12.8,28.533-28.533
	v-1.651C499.933,265.536,487.907,253.042,472.839,252.289z M144.133,464.621l-24.963-24.962l45.996-45.995l12.687,12.687
	c0.017,0.017,0.034,0.035,0.051,0.051l12.223,12.223L144.133,464.621z M335.172,406.399c0.014-0.013,0.027-0.027,0.04-0.041
	l12.693-12.694l45.996,45.995l-24.963,24.962l-45.995-45.995L335.172,406.399z M423.939,118.766
	c0-10.221,8.315-18.536,18.535-18.536c10.221,0,18.536,8.316,18.536,18.536c0,10.221-8.316,18.535-18.536,18.535
	c-7.473,0-13.911-4.455-16.841-10.84c-0.519-2.346-1.067-4.656-1.655-6.913C423.967,119.287,423.939,119.031,423.939,118.766z
	 M60.322,118.766c0-10.221,8.316-18.536,18.536-18.536s18.535,8.316,18.535,18.536c0,0.345-0.033,0.682-0.052,1.022
	c-0.554,2.142-1.074,4.312-1.56,6.505c-2.892,6.477-9.382,11.009-16.923,11.009C68.637,137.301,60.322,128.987,60.322,118.766z
	 M143.777,334.092c0,6.417-5.22,11.637-11.637,11.637H91.379c-6.417,0-11.637-5.22-11.637-11.637v-23.121h64.035V334.092z
	 M235.081,295.948h-83.792H72.231H40.6c-7.449,0-13.511-6.061-13.511-13.51v-1.651c0-7.449,6.061-13.51,13.511-13.51h20.3h49.49
	c4.149,0,7.511-3.363,7.511-7.511c0-4.148-3.362-7.511-7.511-7.511H65.401c-4.825-9.98-15.911-39.33-0.1-73.709
	c0.903-1.965,1.922-3.87,3.05-5.718h290.072c4.149,0,7.511-3.363,7.511-7.511c0-4.148-3.362-7.511-7.511-7.511H81.491
	c11.327-9.448,27.185-16.71,47.865-21.962c20.078-5.099,44.931-8.414,76.278-10.096c0.159-0.008,0.317-0.017,0.477-0.025
	c1.366-0.072,2.743-0.142,4.134-0.208c0.262-0.012,0.529-0.024,0.791-0.036c2.682-0.125,5.409-0.239,8.184-0.342
	c0.199-0.007,0.396-0.016,0.596-0.023c1.05-0.038,2.117-0.072,3.181-0.107c0.844-0.027,1.688-0.055,2.54-0.081
	c0.961-0.029,1.929-0.057,2.901-0.083c1.068-0.029,2.144-0.056,3.225-0.081c0.82-0.02,1.635-0.04,2.463-0.058
	c1.863-0.04,3.741-0.076,5.643-0.108c0.572-0.009,1.156-0.017,1.732-0.025c1.478-0.022,2.965-0.042,4.467-0.059
	c0.729-0.008,1.464-0.015,2.199-0.022c1.447-0.014,2.905-0.025,4.374-0.034c0.666-0.004,1.328-0.009,1.998-0.012
	c2.12-0.01,4.256-0.016,6.422-0.016c2.158,0,4.285,0.006,6.399,0.016c0.67,0.003,1.332,0.008,1.997,0.012
	c1.448,0.009,2.886,0.02,4.314,0.033c0.756,0.007,1.511,0.014,2.26,0.023c1.426,0.016,2.838,0.035,4.243,0.056
	c0.645,0.009,1.297,0.017,1.938,0.028c1.874,0.031,3.726,0.066,5.562,0.106c0.885,0.019,1.757,0.041,2.633,0.062
	c1.003,0.024,2.002,0.048,2.994,0.075c1.04,0.028,2.073,0.058,3.1,0.089c0.75,0.022,1.494,0.047,2.237,0.071
	c1.156,0.038,2.312,0.075,3.45,0.116c0.158,0.006,0.313,0.012,0.471,0.018c4.611,0.169,9.096,0.37,13.451,0.602
	c0.016,0.001,0.032,0.002,0.048,0.002c31.455,1.679,56.379,4.999,76.507,10.109c6.297,1.599,12.145,3.385,17.558,5.361
	c0.053,0.019,0.107,0.038,0.159,0.057c0.741,0.271,1.47,0.549,2.195,0.828c0.239,0.092,0.48,0.183,0.717,0.276
	c0.684,0.267,1.36,0.539,2.03,0.813c0.217,0.089,0.434,0.178,0.65,0.268c9.773,4.062,17.936,8.837,24.555,14.358h-51.362
	c-4.149,0-7.511,3.363-7.511,7.511s3.362,7.511,7.511,7.511h64.502c1.128,1.848,2.146,3.753,3.05,5.718
	c15.817,34.394,4.716,63.753-0.1,73.709H317.246v-26.668c0-4.148-3.363-7.511-7.511-7.511H202.263c-4.149,0-7.511,3.363-7.511,7.511
	v26.668h-53.72c-4.149,0-7.511,3.363-7.511,7.511c0,4.148,3.362,7.511,7.511,7.511h53.72v6.383c0,4.148,3.362,7.511,7.511,7.511
	h41.422C241.296,285.347,238.354,290.431,235.081,295.948z M273.111,431.931v65.047h-35.302v-65.047h19.553h0.042H273.111z
	 M256.607,266.147c-0.022,0-0.044,0-0.066,0h-0.005h-0.005c-0.023,0-0.046,0-0.069,0h-46.688v-6.383v-26.668h92.449v26.668v6.383
	H256.607z M437.045,334.092c0,6.417-5.22,11.637-11.637,11.637h-40.763c-6.416,0-11.636-5.22-11.636-11.637v-23.121h64.035V334.092z
	 M484.91,282.438c0,7.449-6.061,13.51-13.51,13.51h-26.843h-79.058h-87.508c-3.272-5.517-6.215-10.601-8.604-14.778h40.348
	c4.148,0,7.511-3.363,7.511-7.511v-6.383h143.774h10.379c7.45,0,13.51,6.061,13.51,13.51V282.438z"/>
<path d="M396.01,228.558h29.557c13.464,0,24.419-10.955,24.419-24.42c0-13.464-10.955-24.419-24.419-24.419H396.01
	c-13.464,0-24.42,10.955-24.42,24.419C371.59,217.603,382.546,228.558,396.01,228.558z M396.01,194.742h29.557
	c5.181,0,9.396,4.215,9.396,9.396c0,5.182-4.215,9.397-9.396,9.397H396.01c-5.182,0-9.397-4.215-9.397-9.397
	C386.613,198.957,390.828,194.742,396.01,194.742z"/>
<path d="M240.809,198.854h33.109c4.148,0,7.511-3.363,7.511-7.511c0-4.148-3.363-7.511-7.511-7.511h-33.109
	c-4.149,0-7.511,3.363-7.511,7.511C233.297,195.491,236.66,198.854,240.809,198.854z"/>
<path d="M154.195,204.138c0-13.464-10.955-24.419-24.42-24.419h-29.556c-13.464,0-24.42,10.955-24.42,24.419
	c0,13.465,10.955,24.42,24.42,24.42h29.556C143.239,228.558,154.195,217.603,154.195,204.138z M129.775,213.535h-29.556
	c-5.182,0-9.397-4.215-9.397-9.397c0-5.181,4.215-9.396,9.397-9.396h29.556c5.182,0,9.397,4.215,9.397,9.396
	C139.172,209.32,134.957,213.535,129.775,213.535z"/>
<g>
</g>
<g>
</g>
<g>
</g>
<g>
</g>
<g>
</g>
<g>
</g>
<g>
</g>
<g>
</g>
<g>
</g>
<g>
</g>
<g>
</g>
<g>
</g>
<g>
</g>
<g>
</g>
<g>
</g>
</svg>
