<?xml version="1.0" encoding="iso-8859-1"?>
<!-- Generator: Adobe Illustrator 19.0.0, SVG Export Plug-In . SVG Version: 6.00 Build 0)  -->
<svg version="1.1" id="Capa_1" xmlns="http://www.w3.org/2000/svg" xmlns:xlink="http://www.w3.org/1999/xlink" x="0px" y="0px"
	 viewBox="0 0 512 512" style="enable-background:new 0 0 512 512;" xml:space="preserve">
<path style="fill:#444A64;" d="M256,79.71c8.128,0,16.151,0.452,24.051,1.308V56.439c0-13.282-10.768-24.051-24.051-24.051
	c-13.283,0-24.051,10.768-24.051,24.051v24.579C239.849,80.162,247.872,79.71,256,79.71z"/>
<path style="fill:#E5E5E5;" d="M475.904,279.503C465.269,167.405,370.882,79.71,256,79.71S46.731,167.405,36.096,279.503H475.904z"
	/>
<path style="fill:#BFBFBF;" d="M256,79.71c-4.912,0-9.784,0.172-14.617,0.488c108.181,7.068,195.107,92,205.287,199.305h29.233
	C465.269,167.405,370.882,79.71,256,79.71z"/>
<path style="fill:#FFD039;" d="M483.481,321.539H28.519c-11.608,0-21.018-9.41-21.018-21.018l0,0
	c0-11.608,9.41-21.018,21.018-21.018h454.963c11.608,0,21.019,9.41,21.019,21.018l0,0
	C504.5,312.129,495.089,321.539,483.481,321.539z"/>
<path style="fill:#FFAE47;" d="M483.481,279.503H456.48c11.608,0,21.019,9.41,21.019,21.019l0,0c0,11.608-9.41,21.018-21.019,21.018
	h27.001c11.608,0,21.019-9.41,21.019-21.018l0,0C504.5,288.913,495.089,279.503,483.481,279.503z"/>
<g>
	<path style="fill:#F7B081;" d="M335.896,321.539l-22.294,12.065l0,0h17.083c11.284,0,20.433,9.148,20.433,20.433l0,0l48.154-25.334
		c3.225-1.697,5.702-4.224,7.361-7.164H335.896z"/>
	<path style="fill:#F7B081;" d="M412.888,321.539l-61.77,32.498l0,0c0,10.293-7.657,18.98-17.87,20.272l-127.125,16.073l53.99,6.496
		c50.394,6.063,101.416-3.931,145.797-28.56l49.459-27.446c7.132-3.957,10.52-11.858,9.208-19.333H412.888z"/>
</g>
<path style="fill:#ED1856;" d="M256,164.886c6.265-19.992,46.009-23.234,50.499,9.585C311.605,211.799,256,238.834,256,238.834
	s-55.605-27.035-50.499-64.363C209.991,141.652,249.735,144.894,256,164.886z"/>
<path style="fill:#D61857;" d="M306.499,174.471c-3.264-23.859-25.151-28.647-39.27-21.809c7.052,3.554,12.73,10.563,14.27,21.809
	c3.528,25.793-21.927,46.669-37.998,57.109c7.188,4.669,12.5,7.254,12.5,7.254S311.605,211.799,306.499,174.471z"/>
<path style="fill:#FFC89F;" d="M62.316,364.817c0,0,37.202-31.413,83.302-39.983c46.1-8.569,84.766,8.771,84.766,8.771h100.3
	c11.284,0,20.433,9.148,20.433,20.433l0,0c0,10.293-7.657,18.98-17.87,20.272l-127.125,16.073l53.99,6.496
	c50.394,6.063,101.416-3.931,145.797-28.56l67.549-37.485c9.177-4.831,20.503-2.304,26.755,5.971l0,0
	c7.803,10.327,4.595,25.177-6.775,31.362l-98.773,53.732c-49.51,26.933-105.874,62.239-162.012,57.237l-170.336-15.18H7.919v-99.138
	H62.316z"/>
<path style="fill:#F7B081;" d="M500.214,336.804c-0.425-0.563-0.879-1.094-1.349-1.603c-1.507,5.207-4.998,9.866-10.211,12.701
	l-98.774,53.732c-49.51,26.932-105.874,62.239-162.012,57.237l-170.336-15.18H7.919v20.264h54.397l170.337,15.18
	c56.138,5.003,112.503-30.304,162.012-57.237l98.773-53.732C504.809,361.981,508.017,347.131,500.214,336.804z"/>
<g>
	<path style="fill:#DB9975;" d="M380.449,321.539l-34.898,18.511c3.442,3.657,5.566,8.569,5.566,13.987l48.154-25.334
		c3.226-1.697,5.707-4.223,7.364-7.164H380.449z"/>
	<path style="fill:#DB9975;" d="M454.83,321.539l-109.773,58.729l-43.745-1.922l-95.19,12.035l53.99,6.496
		c50.394,6.063,101.416-3.931,145.797-28.56l49.459-27.446c7.133-3.958,10.505-11.858,9.186-19.333H454.83z"/>
</g>
<path d="M256,246.335c1.122,0,2.244-0.252,3.279-0.755c2.47-1.201,60.427-29.896,54.65-72.126
	c-2.899-21.196-17.91-29.924-30.99-31.023c-10.457-0.875-20.319,2.611-26.939,8.901c-6.62-6.29-16.483-9.783-26.939-8.901
	c-13.08,1.1-28.091,9.827-30.991,31.023c-5.777,42.229,52.18,70.924,54.65,72.126C253.756,246.083,254.878,246.335,256,246.335z
	 M212.932,175.487c2.08-15.2,12.851-17.728,17.386-18.109c0.615-0.052,1.229-0.077,1.838-0.077c7.765,0,14.893,4.1,16.688,9.827
	c0.98,3.128,3.878,5.257,7.157,5.257c3.278,0,6.177-2.129,7.157-5.257c1.936-6.178,10.069-10.462,18.526-9.75
	c4.535,0.382,15.307,2.909,17.386,18.109c3.654,26.713-31.91,48.674-43.068,54.859C244.838,224.158,209.278,202.199,212.932,175.487
	z"/>
<path d="M391.08,415.311c-5.081,2.764-10.234,5.615-15.453,8.503c-44.156,24.439-94.205,52.145-142.31,47.852l-103.553-9.229
	c-4.119-0.363-7.768,2.679-8.136,6.805s2.679,7.769,6.805,8.137l103.553,9.228c3.839,0.342,7.667,0.505,11.499,0.505
	c48.748,0,96.72-26.549,139.405-50.174c5.185-2.869,10.306-5.704,15.357-8.451c3.639-1.978,4.984-6.533,3.004-10.172
	C399.273,414.676,394.719,413.327,391.08,415.311z"/>
<path d="M498.116,324.987C506.426,319.998,512,310.9,512,300.522c0-15.726-12.793-28.518-28.519-28.518h-0.87
	c-6.72-53.699-32.292-103.184-72.504-139.967c-34.343-31.414-77.01-51.333-122.555-57.649V56.439
	c0-17.397-14.154-31.551-31.551-31.551c-17.398,0-31.551,14.153-31.551,31.551v17.989c-26.605,3.708-52.467,12.043-76.088,24.687
	c-3.652,1.955-5.027,6.5-3.073,10.151c1.955,3.653,6.5,5.028,10.152,3.073c24.601-13.168,51.809-21.35,79.688-24.09
	c0.701-0.068,1.4-0.138,2.102-0.199c1.294-0.114,2.589-0.209,3.886-0.3c0.837-0.058,1.674-0.122,2.511-0.17
	c1.292-0.075,2.585-0.128,3.879-0.18c0.776-0.031,1.553-0.073,2.327-0.095c2.054-0.06,4.109-0.095,6.166-0.095
	c1.833,0,3.674,0.028,5.52,0.076c0.388,0.01,0.775,0.028,1.162,0.04c1.496,0.047,2.994,0.105,4.494,0.184
	c0.387,0.02,0.772,0.045,1.159,0.067c1.51,0.087,3.021,0.189,4.531,0.308c0.373,0.029,0.747,0.06,1.12,0.091
	c1.512,0.127,3.022,0.271,4.531,0.429c45.16,4.759,87.637,23.754,121.466,54.698c37.108,33.943,60.883,79.457,67.515,128.9H44.502
	c7.885-58.78,39.964-111.675,88.908-146.088c3.388-2.382,4.204-7.061,1.821-10.448c-2.383-3.39-7.06-4.205-10.449-1.821
	c-52.929,37.215-87.423,94.637-95.398,158.359h-0.865C12.793,272.003,0,284.796,0,300.521c0,15.726,12.793,28.519,28.519,28.519
	h78.732c-23.84,10.363-41.569,23.525-47.591,28.277H7.919c-4.142,0-7.5,3.357-7.5,7.5v99.138c0,4.143,3.358,7.5,7.5,7.5h54.062
	l45.114,4.021c0.227,0.02,0.451,0.03,0.674,0.03c3.841,0,7.114-2.937,7.461-6.835c0.368-4.126-2.679-7.769-6.805-8.137l-45.446-4.05
	c-0.221-0.02-0.443-0.029-0.666-0.029H15.42v-84.138h46.896c1.768,0,3.482-0.628,4.834-1.766
	c0.358-0.302,36.331-30.256,79.838-38.343c43.088-8.013,79.968,8.08,80.327,8.239c0.965,0.434,2.011,0.657,3.069,0.657h83.218
	h17.083c7.131,0,12.932,5.801,12.932,12.932c0,1.219-0.171,2.403-0.491,3.527c-1.388,4.875-5.58,8.64-10.819,9.303L205.18,382.94
	c-3.757,0.475-6.57,3.676-6.559,7.463s2.844,6.972,6.604,7.424l53.991,6.496c1.478,0.178,2.955,0.338,4.432,0.49
	c0.452,0.046,0.905,0.089,1.357,0.133c1.062,0.103,2.124,0.2,3.186,0.29c0.474,0.04,0.949,0.08,1.423,0.117
	c1.221,0.096,2.441,0.183,3.661,0.261c0.261,0.017,0.522,0.037,0.784,0.053c1.48,0.09,2.96,0.166,4.439,0.23
	c0.37,0.016,0.738,0.027,1.108,0.042c1.131,0.044,2.262,0.081,3.392,0.109c0.453,0.012,0.905,0.022,1.358,0.03
	c1.15,0.023,2.299,0.037,3.448,0.044c0.343,0.002,0.686,0.007,1.029,0.008c0.153,0,0.306,0.003,0.46,0.003
	c1.36,0,2.72-0.012,4.078-0.034c0.14-0.003,0.28-0.008,0.42-0.01c1.352-0.025,2.703-0.061,4.053-0.107
	c0.449-0.015,0.898-0.035,1.347-0.053c1.062-0.043,2.123-0.091,3.183-0.147c0.488-0.026,0.975-0.053,1.462-0.081
	c1.083-0.064,2.165-0.136,3.246-0.213c0.418-0.03,0.836-0.057,1.253-0.089c2.978-0.229,5.949-0.513,8.912-0.85
	c0.423-0.048,0.844-0.101,1.267-0.151c1.066-0.127,2.132-0.259,3.196-0.4c0.487-0.065,0.973-0.131,1.46-0.198
	c1.043-0.144,2.084-0.296,3.125-0.454c0.447-0.068,0.895-0.133,1.341-0.204c1.327-0.209,2.653-0.428,3.976-0.658
	c0.137-0.024,0.274-0.045,0.41-0.069c1.469-0.258,2.935-0.532,4.399-0.817c0.393-0.077,0.785-0.158,1.178-0.237
	c1.068-0.213,2.135-0.432,3.201-0.66c0.487-0.104,0.974-0.211,1.461-0.318c1.005-0.221,2.008-0.449,3.01-0.683
	c0.467-0.109,0.935-0.217,1.402-0.328c1.17-0.28,2.339-0.57,3.505-0.868c0.273-0.07,0.547-0.135,0.819-0.206
	c1.437-0.372,2.872-0.757,4.303-1.155c0.357-0.099,0.712-0.204,1.068-0.304c1.075-0.304,2.149-0.614,3.221-0.933
	c0.483-0.144,0.966-0.291,1.448-0.438c0.968-0.295,1.935-0.596,2.9-0.902c0.482-0.153,0.965-0.306,1.447-0.463
	c1.059-0.344,2.115-0.697,3.17-1.055c0.358-0.122,0.718-0.239,1.076-0.363c1.403-0.483,2.802-0.979,4.197-1.489
	c0.294-0.107,0.586-0.219,0.879-0.328c1.102-0.407,2.202-0.821,3.3-1.244c0.474-0.183,0.948-0.37,1.421-0.556
	c0.937-0.368,1.872-0.741,2.806-1.121c0.486-0.198,0.972-0.396,1.457-0.597c0.986-0.408,1.97-0.825,2.952-1.246
	c0.399-0.172,0.8-0.34,1.198-0.513c1.366-0.594,2.728-1.2,4.085-1.82c0.199-0.091,0.397-0.186,0.596-0.277
	c1.161-0.534,2.318-1.077,3.473-1.629c0.451-0.216,0.9-0.436,1.35-0.655c0.917-0.446,1.833-0.897,2.746-1.354
	c0.479-0.24,0.958-0.482,1.437-0.725c0.93-0.474,1.858-0.955,2.784-1.44c0.419-0.22,0.84-0.438,1.258-0.66
	c1.329-0.707,2.655-1.423,3.975-2.156l49.458-27.446c0.001,0,0.001-0.001,0.001-0.001l18.009-9.991
	c5.943-3.088,13.169-1.461,17.213,3.89c2.402,3.179,3.297,7.235,2.456,11.129c-0.841,3.895-3.331,7.219-6.831,9.123l-74.392,40.468
	c-3.639,1.978-4.984,6.533-3.004,10.172c1.98,3.638,6.534,4.983,10.172,3.004l74.391-40.467
	c7.339-3.992,12.561-10.966,14.326-19.133c1.764-8.167-0.112-16.675-5.149-23.341C503.925,329.274,501.169,326.833,498.116,324.987z
	 M239.449,72.812V56.439c0-9.126,7.424-16.551,16.551-16.551c9.126,0,16.551,7.424,16.551,16.551V72.81
	c-0.907-0.065-1.815-0.116-2.724-0.171c-0.676-0.041-1.352-0.083-2.027-0.118c-0.807-0.041-1.616-0.077-2.424-0.11
	c-0.91-0.038-1.818-0.068-2.726-0.095c-0.634-0.018-1.268-0.039-1.904-0.052c-1.586-0.034-3.169-0.055-4.746-0.055
	c-2.085,0-4.182,0.039-6.283,0.097c-0.408,0.011-0.815,0.02-1.223,0.033c-1.981,0.066-3.965,0.159-5.952,0.276
	c-0.443,0.026-0.885,0.055-1.327,0.084C240.626,72.739,240.038,72.77,239.449,72.812z M402.27,361.761
	c-12.903,7.16-26.302,13.037-40.055,17.603c-30.258,10.042-62.235,13.736-94.443,10.784l66.418-8.396
	c0.019-0.002,0.038-0.007,0.057-0.01c0.679-0.087,1.348-0.204,2.009-0.339c0.108-0.022,0.216-0.041,0.324-0.064
	c0.642-0.138,1.273-0.302,1.897-0.483c0.127-0.037,0.253-0.074,0.379-0.112c0.616-0.189,1.224-0.397,1.821-0.626
	c0.11-0.043,0.219-0.088,0.329-0.131c0.613-0.245,1.218-0.505,1.808-0.79c0.052-0.025,0.102-0.053,0.153-0.078
	c0.578-0.284,1.144-0.589,1.698-0.91c0.068-0.039,0.138-0.076,0.205-0.116c0.556-0.329,1.097-0.681,1.626-1.046
	c0.098-0.067,0.195-0.134,0.292-0.202c0.514-0.365,1.015-0.746,1.503-1.143c0.093-0.075,0.184-0.153,0.275-0.229
	c0.491-0.411,0.97-0.834,1.431-1.277c0.058-0.056,0.114-0.114,0.171-0.17c0.459-0.448,0.903-0.909,1.33-1.387
	c0.031-0.034,0.063-0.067,0.093-0.101c0.432-0.489,0.843-0.996,1.24-1.513c0.066-0.086,0.133-0.17,0.198-0.257
	c0.378-0.505,0.738-1.023,1.083-1.553c0.066-0.101,0.13-0.203,0.194-0.305c0.339-0.537,0.663-1.085,0.965-1.646
	c0.047-0.086,0.09-0.174,0.136-0.26c0.311-0.592,0.608-1.192,0.877-1.807c0.005-0.012,0.01-0.024,0.015-0.035
	c0.267-0.612,0.507-1.236,0.73-1.869c0.03-0.086,0.063-0.171,0.093-0.258c0.21-0.613,0.395-1.237,0.562-1.868
	c0.03-0.114,0.06-0.228,0.089-0.343c0.158-0.63,0.296-1.267,0.41-1.912c0.008-0.043,0.02-0.085,0.027-0.128l44.55-23.439
	c0.001,0,0.002-0.001,0.004-0.002l11.974-6.3h41.736c-0.932,2.188-2.57,4.064-4.743,5.272L402.27,361.761z M347.318,331.613
	c-0.042-0.031-0.085-0.06-0.128-0.091c-0.59-0.434-1.197-0.844-1.821-1.231c-0.046-0.029-0.09-0.059-0.136-0.087
	c-0.622-0.381-1.263-0.733-1.915-1.065c-0.06-0.031-0.116-0.068-0.176-0.098h39.38l-26.245,13.807
	c-0.027-0.061-0.06-0.117-0.087-0.177c-0.302-0.676-0.625-1.34-0.978-1.987c-0.02-0.037-0.043-0.074-0.064-0.111
	c-0.354-0.641-0.735-1.266-1.137-1.875c-0.038-0.058-0.073-0.117-0.112-0.174c-0.401-0.599-0.829-1.177-1.275-1.742
	c-0.071-0.09-0.141-0.181-0.213-0.271c-0.44-0.545-0.902-1.071-1.381-1.581c-0.086-0.091-0.172-0.181-0.258-0.271
	c-0.488-0.505-0.992-0.994-1.517-1.462c-0.08-0.072-0.163-0.14-0.243-0.211C348.464,332.509,347.902,332.047,347.318,331.613z
	 M15.001,300.521c0-7.453,6.064-13.517,13.518-13.517h7.577h439.808h7.577c7.454,0,13.518,6.064,13.518,13.517
	c0,7.453-6.064,13.518-13.518,13.518h-18.906h-51.69h-6.256h-70.736H28.519C21.065,314.039,15.001,307.975,15.001,300.521z"/>
<g>
</g>
<g>
</g>
<g>
</g>
<g>
</g>
<g>
</g>
<g>
</g>
<g>
</g>
<g>
</g>
<g>
</g>
<g>
</g>
<g>
</g>
<g>
</g>
<g>
</g>
<g>
</g>
<g>
</g>
</svg>
