<svg height="512pt" viewBox="-32 0 511 512" width="512pt" xmlns="http://www.w3.org/2000/svg"><path d="m255.929688 89.949219c-17.695313 0-31.578126 19.730469-31.578126 19.730469s-13.097656-19.730469-31.585937-19.730469c-17.988281 0-32.671875 14.832031-33.632813 32.792969-.542968 10.148437 2.730469 17.867187 7.335938 24.863281 9.210938 13.972656 57.941406 46.445312 57.941406 46.445312s48.546875-32.351562 57.816406-46.445312c4.617188-7.027344 7.878907-14.714844 7.335938-24.863281-.960938-17.960938-15.648438-32.792969-33.632812-32.792969zm0 0" fill="#f1697b"/><path d="m224.410156 204.050781c-1.933594 0-3.867187-.558593-5.546875-1.679687-8.417969-5.609375-50.917969-34.351563-60.742187-49.261719-4.21875-6.402344-9.738282-16.574219-8.972656-30.898437 1.265624-23.699219 20.425781-42.261719 43.617187-42.261719 13.671875 0 24.6875 7.804687 31.660156 14.554687 7.050781-6.746094 18.105469-14.554687 31.5-14.554687 23.191407 0 42.351563 18.5625 43.621094 42.261719.765625 14.292968-4.75 24.472656-8.964844 30.886718-9.890625 15.035156-52.238281 43.683594-60.628906 49.273438-1.675781 1.121094-3.609375 1.679687-5.542969 1.679687zm-31.644531-104.101562c-12.351563 0-22.957031 10.464843-23.648437 23.328125-.351563 6.59375 1.355468 12.226562 5.703124 18.824218 5.328126 8.082032 31.230469 27.304688 49.589844 39.878907 18.289063-12.53125 44.097656-31.714844 49.460938-39.871094 4.410156-6.707031 6.066406-12.164063 5.707031-18.832031-.6875-12.863282-11.296875-23.328125-23.648437-23.328125-10.128907 0-20.339844 11.195312-23.417969 15.511719-1.914063 2.679687-5.046875 4.25-8.320313 4.203124-3.289062-.054687-6.351562-1.714843-8.171875-4.453124-2.851562-4.222657-12.632812-15.261719-23.253906-15.261719zm0 0"/><path d="m191.835938 278.484375c-13.085938-6.582031-27.789063-10.058594-42.519532-10.058594-25.285156 0-49.058594 9.847657-66.941406 27.726563-17.882812 17.882812-27.730469 41.660156-27.730469 66.949218 0 25.289063 9.847657 49.066407 27.730469 66.949219 17.886719 17.886719 41.660156 27.734375 66.949219 27.734375 14.726562 0 29.425781-3.476562 42.511719-10.054687l1.234374-.617188.867188 1.074219c2.996094 3.707031 6.238281 7.308594 9.636719 10.710938 6.628906 6.628906 13.933593 12.570312 21.707031 17.65625l2.191406 1.433593-2.191406 1.433594c-22.5625 14.765625-48.828125 22.574219-75.957031 22.574219-37.097657 0-71.980469-14.441406-98.21875-40.675782-54.148438-54.15625-54.148438-142.28125 0-196.4375 26.234375-26.230468 61.113281-40.679687 98.210937-40.679687 27.125 0 53.394532 7.808594 75.96875 22.578125 7.972656 5.214844 15.460938 11.304688 22.257813 18.105469 3.484375 3.484375 6.808593 7.179687 9.878906 10.980469 19.859375 24.546874 30.796875 55.523437 30.796875 87.226562s-10.9375 62.6875-30.796875 87.238281l-.871094 1.070313-1.230469-.617188c-9.339843-4.6875-17.859374-10.847656-25.324218-18.3125-2.484375-2.484375-4.832032-5.09375-6.976563-7.761718l-.867187-1.074219.871094-1.078125c27.871093-34.457032 27.863281-84.464844-.015626-118.90625" fill="#f4c766"/><path d="m175.949219 509.449219c-.648438 0-1.3125-.058594-1.960938-.1875-.628906-.132813-1.261719-.320313-1.871093-.570313-.597657-.25-1.179688-.5625-1.71875-.921875-.550782-.371093-1.058594-.78125-1.519532-1.25-.460937-.460937-.882812-.96875-1.25-1.519531-.359375-.539062-.671875-1.121094-.921875-1.71875-.25-.609375-.441406-1.230469-.570312-1.871094-.128907-.648437-.1875-1.300781-.1875-1.960937 0-.648438.058593-1.308594.1875-1.949219.132812-.640625.320312-1.269531.570312-1.871094.25-.597656.558594-1.179687.921875-1.730468.367188-.539063.777344-1.058594 1.25-1.519532.460938-.457031.96875-.878906 1.519532-1.238281.539062-.359375 1.121093-.671875 1.71875-.921875.609374-.25 1.242187-.4375 1.871093-.570312 1.289063-.257813 2.621094-.257813 3.910157 0 .640624.132812 1.269531.320312 1.871093.570312.609375.25 1.1875.5625 1.726563.921875.554687.359375 1.0625.78125 1.523437 1.238281.457031.460938.878907.980469 1.238281 1.519532.359376.550781.671876 1.132812.921876 1.730468.25.601563.4375 1.230469.566406 1.871094.132812.640625.199218 1.300781.199218 1.949219 0 2.640625-1.066406 5.210937-2.929687 7.070312-.457031.46875-.96875.878907-1.519531 1.25-.539063.359375-1.117188.671875-1.730469.921875-.601563.25-1.230469.4375-1.867187.570313-.640626.128906-1.300782.1875-1.949219.1875zm0 0"/><path d="m397.589844 264.882812c-26.238282-26.230468-61.117188-40.675781-98.21875-40.675781-26.753906 0-52.667969 7.59375-75.023438 21.96875.3125.203125.625.402344.9375.609375 7.972656 5.214844 15.460938 11.304688 22.257813 18.101563 3.484375 3.484375 6.808593 7.179687 9.878906 10.980469.449219.554687.894531 1.117187 1.335937 1.679687 12.601563-5.976563 26.597657-9.125 40.617188-9.125 25.289062 0 49.066406 9.847656 66.945312 27.730469 17.882813 17.882812 27.730469 41.660156 27.730469 66.949218 0 25.289063-9.847656 49.066407-27.730469 66.949219-17.882812 17.882813-41.65625 27.730469-66.941406 27.730469-14.730468 0-29.433594-3.480469-42.519531-10.058594-9.011719-4.523437-17.234375-10.46875-24.4375-17.671875-2.398437-2.398437-4.660156-4.917969-6.734375-7.492187-27.421875-33.886719-27.875-82.835938-1.347656-117.21875-.4375-.566406-.878906-1.128906-1.332032-1.6875-2.0625-2.570313-4.324218-5.089844-6.734374-7.5-7.203126-7.203125-15.421876-13.148438-24.433594-17.671875-.632813-.316407-1.265625-.625-1.902344-.925781-19.011719 24.273437-29.460938 54.570312-29.460938 85.554687 0 31.703125 10.9375 62.683594 30.796876 87.230469 3.070312 3.796875 6.394531 7.492187 9.878906 10.976562 6.796875 6.796875 14.285156 12.886719 22.257812 18.105469 22.574219 14.773437 48.839844 22.578125 75.957032 22.578125h.011718c37.101563-.003906 71.980469-14.449219 98.210938-40.679688 54.148437-54.15625 54.148437-142.277343 0-196.4375zm0 0" fill="#f9efaa"/><path d="m404.660156 257.8125c-28.125-28.117188-65.519531-43.601562-105.292968-43.601562-26.519532 0-52.320313 6.984374-75.019532 20.242187-22.707031-13.265625-48.488281-20.246094-75.03125-20.246094-39.769531 0-77.160156 15.488281-105.28125 43.609375-58.046875 58.054688-58.046875 152.519532 0 210.578125 23.535156 23.53125 53.304688 38.1875 86.089844 42.382813.429688.058594.859375.082031 1.28125.082031 4.957031 0 9.261719-3.683594 9.90625-8.730469.703125-5.476562-3.171875-10.488281-8.648438-11.1875-28.351562-3.628906-54.109374-16.316406-74.484374-36.6875-50.253907-50.261718-50.253907-132.039062 0-182.296875 24.339843-24.34375 56.707031-37.75 91.136718-37.75 25.175782 0 49.550782 7.242188 70.492188 20.945313.003906.003906.003906.003906.003906.003906 7.398438 4.839844 14.347656 10.492188 20.660156 16.804688 3.230469 3.230468 6.316406 6.660156 9.167969 10.191406.003906 0 .003906.003906.007813.007812 18.425781 22.773438 28.570312 51.515625 28.570312 80.9375 0 25.777344-7.933594 51.398438-22.40625 72.644532-5.910156-3.546876-11.378906-7.820313-16.320312-12.761719-.859376-.859375-1.695313-1.742188-2.511719-2.632813 11.371093-17.457031 17.347656-38.320312 16.917969-59.394531-.457032-22.351563-8.113282-44.15625-21.613282-61.675781-.011718-.015625-.023437-.035156-.035156-.050782-.03125-.039062-.058594-.078124-.089844-.117187-.046875-.0625-.09375-.121094-.144531-.183594-.402344-.519531-.804687-1.03125-1.199219-1.515625-.011718-.015625-4.828125-5.683594-7.472656-8.328125-7.960938-7.960937-17.054688-14.535156-27.011719-19.53125h-.003906c-.605469-.308593-1.21875-.605469-1.832031-.898437-.089844-.042969-.179688-.089844-.269532-.132813-.023437-.007812-.046874-.015625-.070312-.027343-13.917969-6.589844-29.367188-10.066407-44.839844-10.066407-27.957031 0-54.242187 10.886719-74.011718 30.65625-19.773438 19.773438-30.660157 46.058594-30.660157 74.019531 0 27.960938 10.886719 54.25 30.660157 74.019532 19.773437 19.777344 46.058593 30.664062 74.019531 30.664062 12.773437 0 25.707031-2.417968 37.660156-7 2.273437 2.609375 4.648437 5.15625 7.09375 7.605469 7.28125 7.28125 15.308594 13.808594 23.855469 19.398437 24.207031 15.839844 52.363281 24.210938 81.433594 24.210938h.144531c39.722656-.039062 77.058593-15.523438 105.148437-43.609375 58.046875-58.054687 58.046875-152.519531 0-210.578125zm-130.316406 24.390625c8.085938-2.484375 16.570312-3.78125 25.027344-3.78125 22.621094 0 43.886718 8.808594 59.875 24.804687 15.996094 15.992188 24.804687 37.257813 24.804687 59.875 0 22.621094-8.808593 43.886719-24.804687 59.878907-15.992188 15.996093-37.253906 24.800781-59.871094 24.800781-8.484375 0-16.953125-1.296875-25.039062-3.785156 15.453124-23.933594 23.882812-52.335938 23.882812-80.898438 0-28.753906-8.394531-56.953125-23.875-80.894531zm-49.976562 41.617187c12.863281 24.480469 12.9375 53.921876.011718 78.558594-12.667968-24.402344-12.714844-54.101562-.011718-78.558594zm-134.921876 99.160157c-15.992187-15.996094-24.800781-37.257813-24.800781-59.878907 0-22.617187 8.808594-43.882812 24.800781-59.875 15.996094-15.992187 37.257813-24.800781 59.875-24.800781 8.488282 0 16.957032 1.296875 25.042969 3.785157-15.472656 23.949218-23.886719 52.210937-23.886719 80.898437 0 28.753906 8.398438 56.953125 23.878907 80.894531-8.097657 2.484375-16.609375 3.78125-25.03125 3.78125-22.617188 0-43.882813-8.808594-59.878907-24.804687zm301.074219 31.269531c-24.34375 24.339844-56.710937 37.746094-91.140625 37.75-.042968 0-.089844 0-.132812 0-25.125-.023438-49.453125-7.265625-70.363282-20.945312-7.398437-4.84375-14.351562-10.496094-20.660156-16.808594-3.234375-3.230469-6.320312-6.660156-9.175781-10.195313-18.425781-22.773437-28.570313-51.519531-28.570313-80.941406 0-25.890625 7.90625-51.382813 22.402344-72.648437 5.910156 3.546874 11.382813 7.824218 16.320313 12.761718.863281.863282 1.703125 1.742188 2.523437 2.632813-11.191406 17.179687-17.164062 37.621093-16.941406 58.390625.253906 23.542968 8.472656 46.488281 23.117188 64.585937 2.292968 2.847657 4.796874 5.636719 7.449218 8.289063 7.964844 7.964844 17.054688 14.535156 27.015625 19.535156 14.472657 7.277344 30.730469 11.125 47.011719 11.125h.003906c27.957032 0 54.242188-10.890625 74.011719-30.660156 19.769531-19.769532 30.660156-46.054688 30.660156-74.019532 0-27.960937-10.890625-54.246093-30.660156-74.015624-19.765625-19.773438-46.054687-30.664063-74.019531-30.664063-12.824219 0-25.699219 2.402344-37.667969 6.992187-2.269531-2.609374-4.644531-5.152343-7.089844-7.597656-3.738281-3.742187-7.675781-7.28125-11.777343-10.597656 17.503906-8.546875 36.785156-13.011719 56.53125-13.011719 34.433593 0 66.804687 13.40625 91.148437 37.746094 50.253906 50.261719 50.253906 132.039063.003906 182.296875zm0 0"/><path d="m224.347656 38c-5.523437 0-10-4.476562-10-10v-18c0-5.523438 4.476563-10 10-10 5.523438 0 10 4.476562 10 10v18c0 5.523438-4.476562 10-10 10zm0 0"/><path d="m143.738281 71.390625c-2.558593 0-5.117187-.976563-7.070312-2.929687l-12.730469-12.726563c-3.902344-3.90625-3.902344-10.238281 0-14.144531 3.90625-3.90625 10.238281-3.90625 14.144531 0l12.726563 12.726562c3.90625 3.90625 3.90625 10.238282 0 14.144532-1.953125 1.953124-4.511719 2.929687-7.070313 2.929687zm0 0"/><path d="m304.957031 71.390625c-2.558593 0-5.117187-.976563-7.070312-2.929687-3.90625-3.90625-3.90625-10.238282 0-14.140626l12.726562-12.730468c3.90625-3.902344 10.238281-3.902344 14.144531 0 3.90625 3.90625 3.90625 10.238281 0 14.144531l-12.726562 12.726563c-1.957031 1.953124-4.511719 2.929687-7.074219 2.929687zm0 0"/><path d="m356.347656 152h-18c-5.523437 0-10-4.476562-10-10s4.476563-10 10-10h18c5.523438 0 10 4.476562 10 10s-4.476562 10-10 10zm0 0"/><path d="m110.347656 152h-18c-5.523437 0-10-4.476562-10-10s4.476563-10 10-10h18c5.523438 0 10 4.476562 10 10s-4.476562 10-10 10zm0 0"/></svg>